<svg version="1.1" id="Layer_1" xmlns="http://www.w3.org/2000/svg" xmlns:xlink="http://www.w3.org/1999/xlink" x="0px" y="0px"
	 width="100%" viewBox="0 0 3300 2550" enable-background="new 0 0 3300 2550" xml:space="preserve">
<path fill="#2B539F" opacity="1.000000" stroke="none" 
	d="
M1994.000000,2552.000000 
	C1329.333496,2552.000000 665.666931,2552.000000 2.000267,2552.000000 
	C2.000178,1702.000244 2.000178,852.000549 2.000089,2.000609 
	C1101.999512,2.000406 2201.999023,2.000406 3301.999023,2.000203 
	C3301.999268,851.999329 3301.999268,1701.998657 3301.999512,2551.999023 
	C2866.333252,2552.000000 2430.666748,2552.000000 1994.000000,2552.000000 
M1213.884399,1532.867920 
	C1213.884399,1492.768066 1213.884399,1452.668091 1213.884399,1412.568237 
	C1214.633057,1412.363770 1215.381836,1412.159302 1216.130493,1411.954834 
	C1218.024170,1414.894653 1219.957397,1417.809937 1221.805664,1420.778076 
	C1246.985474,1461.210571 1272.146118,1501.654907 1297.338867,1542.079468 
	C1299.451050,1545.468750 1301.234375,1549.319336 1304.111816,1551.910278 
	C1307.684570,1555.127563 1312.099487,1559.185181 1316.394287,1559.494263 
	C1329.640015,1560.447510 1343.028320,1560.285278 1356.307861,1559.567139 
	C1363.936523,1559.154663 1367.089966,1554.703003 1367.700439,1546.843506 
	C1367.854736,1544.854736 1367.778198,1542.846558 1367.778320,1540.847290 
	C1367.785522,1464.199829 1367.791992,1387.552246 1367.783325,1310.904785 
	C1367.782959,1307.908325 1367.905518,1304.874268 1367.499023,1301.922607 
	C1366.378906,1293.787842 1362.587769,1290.053955 1354.271240,1289.855469 
	C1341.950317,1289.561523 1329.604370,1289.536011 1317.290649,1289.985718 
	C1308.965820,1290.289551 1305.299683,1294.226685 1304.431274,1302.395996 
	C1304.115601,1305.365601 1304.262451,1308.388184 1304.257690,1311.386597 
	C1304.196167,1350.043579 1304.145264,1388.700562 1304.092773,1427.357544 
	C1304.088501,1430.542480 1304.092163,1433.727417 1304.092163,1436.912354 
	C1300.729980,1435.113037 1298.960815,1432.925049 1297.483765,1430.554810 
	C1280.924438,1403.981812 1264.417480,1377.376099 1247.880493,1350.789185 
	C1237.852661,1334.667114 1227.732056,1318.602417 1217.779053,1302.434326 
	C1212.405029,1293.704590 1204.959961,1289.356445 1194.542847,1289.820435 
	C1186.894043,1290.161011 1179.216309,1289.823853 1171.551758,1289.847046 
	C1152.101440,1289.906006 1148.760986,1293.137817 1148.753052,1312.454102 
	C1148.722290,1387.768677 1148.749634,1463.083130 1148.785278,1538.397705 
	C1148.786865,1541.721802 1148.828003,1545.081543 1149.291382,1548.362427 
	C1150.392334,1556.157471 1153.721680,1559.783447 1161.670288,1560.075439 
	C1174.646362,1560.551880 1187.662964,1560.553223 1200.641235,1560.120972 
	C1209.262939,1559.833862 1213.006226,1555.608398 1213.719727,1546.800903 
	C1214.041748,1542.825562 1213.845337,1538.808105 1213.884399,1532.867920 
M1946.432861,1311.528687 
	C1946.481323,1383.856934 1946.526001,1456.185303 1946.587280,1528.513550 
	C1946.590942,1532.844727 1946.486816,1537.196045 1946.845093,1541.503540 
	C1948.051270,1556.010620 1952.468018,1560.055420 1967.106812,1560.073608 
	C1995.437622,1560.108643 2023.769775,1560.195801 2052.098633,1559.948364 
	C2061.070312,1559.870117 2070.084229,1559.210205 2078.991699,1558.109863 
	C2127.749023,1552.086792 2163.234375,1515.102051 2165.737793,1465.854736 
	C2167.174072,1437.603149 2167.074951,1409.166626 2165.729980,1380.905518 
	C2163.700195,1338.251587 2137.334229,1304.929443 2097.406494,1293.002930 
	C2087.310547,1289.987183 2076.534668,1288.222534 2066.005371,1287.874634 
	C2033.699951,1286.807373 2001.362549,1286.703857 1969.037476,1286.238647 
	C1967.372925,1286.214600 1965.693604,1286.192261 1964.042969,1286.370728 
	C1953.931763,1287.465576 1949.154541,1291.789917 1947.230957,1301.749023 
	C1946.728882,1304.348022 1946.686646,1307.035645 1946.432861,1311.528687 
M1737.333740,1613.661987 
	C1713.184082,1580.821899 1681.046997,1564.144409 1639.965698,1563.874634 
	C1604.217407,1563.639893 1574.267090,1575.825439 1549.948853,1601.975342 
	C1534.015259,1619.109253 1526.120483,1639.378784 1526.127319,1662.758057 
	C1526.136108,1693.416870 1526.112183,1724.075806 1526.135132,1754.734619 
	C1526.152832,1778.504883 1534.515015,1798.898438 1550.802002,1816.195557 
	C1577.314331,1844.351929 1610.156250,1855.296021 1648.242432,1853.097046 
	C1678.252808,1851.364380 1703.530151,1839.816162 1724.726685,1818.665771 
	C1742.889038,1800.543091 1751.953491,1778.836182 1751.855591,1753.173706 
	C1751.742432,1723.515015 1751.748047,1693.855347 1751.857422,1664.196533 
	C1751.922974,1646.419922 1747.708984,1629.918823 1737.333740,1613.661987 
M1572.998657,1388.453491 
	C1547.104736,1388.453491 1521.210815,1388.453491 1494.877441,1388.453491 
	C1494.877441,1374.460449 1494.877441,1361.651123 1494.877441,1347.801025 
	C1498.996338,1347.801025 1502.572266,1347.801025 1506.148193,1347.801025 
	C1542.814209,1347.800903 1579.480225,1347.802490 1616.146240,1347.797363 
	C1618.812500,1347.796997 1621.499023,1347.951904 1624.140991,1347.685913 
	C1631.582031,1346.936768 1635.798706,1342.924561 1636.012329,1335.464844 
	C1636.336792,1324.141724 1636.363892,1312.792725 1635.981812,1301.472900 
	C1635.731934,1294.069946 1631.387085,1290.262939 1623.814331,1289.610718 
	C1622.158569,1289.468262 1620.483276,1289.531128 1618.817017,1289.531006 
	C1558.484741,1289.527466 1498.152466,1289.519897 1437.820190,1289.550903 
	C1434.927368,1289.552368 1432.034668,1289.899780 1428.795654,1290.108521 
	C1428.795654,1380.389282 1428.795654,1469.885376 1428.795654,1560.116211 
	C1432.442871,1560.116211 1435.392456,1560.116211 1438.342041,1560.116211 
	C1498.007690,1560.115845 1557.673218,1560.115723 1617.338867,1560.114380 
	C1619.005493,1560.114258 1620.676758,1560.178833 1622.337769,1560.078857 
	C1630.822266,1559.568481 1635.280762,1555.513916 1635.601440,1547.038696 
	C1635.966675,1537.385986 1635.968994,1527.698975 1635.611450,1518.046021 
	C1635.309082,1509.883179 1631.168701,1506.147705 1623.008789,1505.696289 
	C1620.682251,1505.567627 1618.343262,1505.656738 1616.010010,1505.656616 
	C1579.343994,1505.655273 1542.677979,1505.655518 1506.011963,1505.655396 
	C1502.452393,1505.655396 1498.892822,1505.655396 1494.900391,1505.655396 
	C1494.900391,1486.298462 1494.900391,1468.149658 1494.900391,1448.830933 
	C1499.053589,1448.830933 1502.635742,1448.831055 1506.217896,1448.830933 
	C1538.550659,1448.830078 1570.883667,1448.888428 1603.216187,1448.799194 
	C1616.089355,1448.763672 1619.644775,1445.038452 1619.743286,1431.975708 
	C1619.816162,1422.309814 1619.890625,1412.640381 1619.713257,1402.977173 
	C1619.521606,1392.535522 1615.620117,1388.691528 1604.996338,1388.499878 
	C1594.999756,1388.319702 1584.997437,1388.456177 1572.998657,1388.453491 
M1705.712158,715.365479 
	C1682.138550,704.706604 1657.590454,700.699097 1631.766113,703.517700 
	C1548.190552,712.639465 1491.077881,793.936279 1511.168823,875.490540 
	C1529.105591,948.300659 1598.687500,993.345215 1672.978149,980.239380 
	C1748.574219,966.903320 1800.216431,891.328918 1784.794189,816.353882 
	C1775.313110,770.261475 1749.135986,736.933472 1705.712158,715.365479 
M1840.964355,1449.299561 
	C1848.296875,1449.274536 1855.648315,1449.569946 1862.956909,1449.138916 
	C1871.063354,1448.660889 1875.390381,1444.495850 1875.638672,1436.555664 
	C1876.013672,1424.569092 1876.002808,1412.553711 1875.627686,1400.567017 
	C1875.404785,1393.445801 1871.427979,1389.782959 1864.307617,1388.972778 
	C1861.671753,1388.672729 1858.981934,1388.810547 1856.316772,1388.809814 
	C1824.653320,1388.801025 1792.989990,1388.823853 1761.326538,1388.774780 
	C1757.839966,1388.769409 1754.353882,1388.370605 1750.428711,1388.126953 
	C1750.387573,1374.135132 1750.087280,1361.325195 1750.613281,1347.987305 
	C1755.218628,1347.987305 1758.526611,1347.987305 1761.834595,1347.987305 
	C1798.830811,1347.987061 1835.826904,1347.988892 1872.823120,1347.981812 
	C1875.488647,1347.981323 1878.180176,1348.140747 1880.814575,1347.835938 
	C1887.699585,1347.039673 1891.810059,1343.089111 1892.025513,1336.082031 
	C1892.373535,1324.760620 1892.374756,1313.413818 1892.040894,1302.091797 
	C1891.819702,1294.592407 1887.550049,1290.558350 1880.222168,1289.831909 
	C1878.570068,1289.668213 1876.891968,1289.746460 1875.225830,1289.746338 
	C1814.565430,1289.741943 1753.905151,1289.733521 1693.244751,1289.767578 
	C1690.685059,1289.768921 1688.125488,1290.169434 1684.866821,1290.442627 
	C1684.866821,1380.442993 1684.866821,1469.909546 1684.866821,1560.310181 
	C1688.861206,1560.310181 1692.450806,1560.310059 1696.040283,1560.310059 
	C1744.035278,1560.310059 1792.030396,1560.310791 1840.025391,1560.309937 
	C1852.357422,1560.309692 1864.691406,1560.435303 1877.020996,1560.262817 
	C1887.359741,1560.118042 1891.462158,1556.019531 1891.703735,1545.662598 
	C1891.905884,1537.001587 1891.922607,1528.327393 1891.693604,1519.667603 
	C1891.434326,1509.869141 1887.410522,1506.130615 1877.424438,1505.857788 
	C1875.093018,1505.794067 1872.758545,1505.840454 1870.425415,1505.840454 
	C1834.095825,1505.839966 1797.766235,1505.852783 1761.436646,1505.819824 
	C1757.929565,1505.816650 1754.422729,1505.532104 1750.842041,1505.374878 
	C1750.842041,1486.323853 1750.842041,1468.450073 1750.842041,1449.299438 
	C1780.543335,1449.299438 1809.759766,1449.299438 1840.964355,1449.299561 
M2016.131836,1583.604736 
	C2014.314575,1576.296021 2008.665771,1573.212036 2002.099365,1572.817749 
	C1989.823486,1572.080566 1977.459839,1571.689209 1965.191162,1572.310547 
	C1955.842041,1572.783936 1951.030151,1578.447754 1950.048096,1587.943604 
	C1949.570312,1592.564697 1949.739868,1597.260376 1949.742310,1601.922363 
	C1949.766357,1648.568481 1949.910645,1695.214844 1949.761597,1741.860352 
	C1949.738403,1749.136230 1949.132080,1756.570312 1947.532959,1763.645996 
	C1944.583252,1776.697021 1936.696777,1786.166016 1923.067505,1788.261230 
	C1913.333618,1789.757568 1903.102783,1790.301636 1893.377686,1789.055054 
	C1877.797729,1787.058105 1868.489258,1777.084229 1865.875488,1761.534546 
	C1864.777954,1755.005249 1864.200317,1748.310547 1864.187378,1741.689331 
	C1864.088501,1691.045288 1864.215942,1640.401001 1864.205811,1589.756714 
	C1864.203003,1575.883789 1861.224243,1572.684448 1847.320557,1572.163940 
	C1837.004150,1571.777466 1826.665771,1571.854736 1816.338379,1571.923340 
	C1800.812866,1572.026489 1796.079590,1576.738770 1796.012939,1592.263672 
	C1795.939941,1609.255615 1796.092896,1626.248535 1796.111694,1643.240967 
	C1796.156372,1683.554077 1795.911011,1723.869873 1796.296509,1764.179565 
	C1796.609375,1796.913330 1812.469849,1820.534668 1841.016357,1835.655029 
	C1869.835693,1850.919800 1900.645874,1856.581787 1932.923462,1851.599854 
	C1965.151489,1846.625732 1990.032471,1830.374146 2005.288818,1800.922363 
	C2014.021484,1784.063965 2018.069702,1765.970703 2018.085327,1747.013794 
	C2018.125488,1698.368286 2018.129150,1649.722778 2018.003662,1601.077515 
	C2017.990112,1595.791382 2017.036865,1590.507446 2016.131836,1583.604736 
M1490.436890,1605.614502 
	C1493.520508,1600.087769 1496.884033,1594.695435 1499.619629,1589.001465 
	C1503.400269,1581.132080 1500.123779,1574.344971 1491.591431,1572.199097 
	C1488.409424,1571.399048 1484.988159,1571.349976 1481.672485,1571.317627 
	C1471.008423,1571.213379 1460.316772,1571.736694 1449.685303,1571.139282 
	C1440.089844,1570.599976 1434.331421,1574.354858 1429.914917,1582.872192 
	C1416.731445,1608.296875 1402.905029,1633.388306 1389.286865,1658.586792 
	C1387.759766,1661.412598 1385.958252,1664.089966 1383.713379,1667.772095 
	C1381.420288,1664.060425 1379.630493,1661.395020 1378.069946,1658.601440 
	C1363.937988,1633.303833 1349.718018,1608.053711 1335.823975,1582.625854 
	C1331.866699,1575.383179 1326.577881,1571.909790 1318.219238,1572.157104 
	C1305.898438,1572.521729 1293.556152,1572.083618 1281.228271,1572.298096 
	C1263.677124,1572.603516 1259.090942,1580.708130 1267.768555,1595.721191 
	C1293.604736,1640.420532 1319.333496,1685.182495 1345.411499,1729.740356 
	C1349.620972,1736.932861 1351.571045,1744.036377 1351.457275,1752.350342 
	C1351.105957,1778.008301 1351.245483,1803.674805 1351.380859,1829.336914 
	C1351.435425,1839.692993 1354.289307,1842.609863 1364.356934,1842.767700 
	C1377.018677,1842.966187 1389.687866,1842.959351 1402.349976,1842.775635 
	C1412.728760,1842.625122 1415.666748,1839.400757 1415.886841,1828.720947 
	C1415.934937,1826.388916 1415.900757,1824.055176 1415.900757,1821.722168 
	C1415.901489,1796.725830 1415.738159,1771.727417 1416.053833,1746.735107 
	C1416.109741,1742.317261 1417.303955,1737.451416 1419.427368,1733.593140 
	C1442.712769,1691.282715 1466.286987,1649.131104 1490.436890,1605.614502 
M1678.995850,1278.120239 
	C1687.993408,1278.116089 1696.994263,1278.260010 1705.987793,1278.069336 
	C1716.734009,1277.841797 1721.648071,1272.859863 1721.890747,1261.953857 
	C1722.083496,1253.293823 1721.996338,1244.625732 1721.925537,1235.962036 
	C1721.814819,1222.421631 1717.379028,1217.902344 1704.100098,1217.757446 
	C1697.559570,1217.686035 1691.017700,1217.745117 1684.670532,1217.745117 
	C1682.593506,1199.949341 1683.388306,1068.878418 1685.572998,1061.710083 
	C1692.768311,1061.710083 1700.107544,1062.009644 1707.411987,1061.633911 
	C1716.454102,1061.168701 1721.535889,1056.083862 1721.822632,1047.014404 
	C1722.159302,1036.361938 1722.183350,1025.679199 1721.784912,1015.030579 
	C1721.478027,1006.831604 1716.737061,1002.237061 1708.682861,1001.381104 
	C1705.712891,1001.065430 1702.692505,1001.173401 1699.695190,1001.171997 
	C1672.369385,1001.158875 1645.043457,1001.158386 1617.717651,1001.167480 
	C1608.720459,1001.170532 1599.711548,1000.935547 1590.729370,1001.315002 
	C1581.967529,1001.684998 1576.805786,1006.402344 1576.437012,1014.872559 
	C1575.959229,1025.848145 1575.963745,1036.875122 1576.432617,1047.851440 
	C1576.789185,1056.201172 1582.141113,1061.087402 1590.682617,1061.637329 
	C1596.325439,1062.000488 1602.009277,1061.679565 1607.672607,1061.785645 
	C1610.522217,1061.838745 1613.366821,1062.160278 1615.873657,1062.336670 
	C1615.873657,1114.545288 1615.873657,1165.710693 1615.873657,1217.750977 
	C1607.596680,1217.750977 1599.992676,1217.614746 1592.395630,1217.783569 
	C1581.521729,1218.025146 1576.589355,1222.859375 1576.303589,1233.723145 
	C1576.076050,1242.381592 1576.183472,1251.051025 1576.262939,1259.714600 
	C1576.390503,1273.608643 1580.909058,1278.072632 1595.020142,1278.101562 
	C1622.345825,1278.157837 1649.671753,1278.119263 1678.995850,1278.120239 
z"/>
<path fill="#FCFDFE" opacity="1.000000" stroke="none" 
	d="
M1213.884277,1533.838867 
	C1213.845337,1538.808105 1214.041748,1542.825562 1213.719727,1546.800903 
	C1213.006226,1555.608398 1209.262939,1559.833862 1200.641235,1560.120972 
	C1187.662964,1560.553223 1174.646362,1560.551880 1161.670288,1560.075439 
	C1153.721680,1559.783447 1150.392334,1556.157471 1149.291382,1548.362427 
	C1148.828003,1545.081543 1148.786865,1541.721802 1148.785278,1538.397705 
	C1148.749634,1463.083130 1148.722290,1387.768677 1148.753052,1312.454102 
	C1148.760986,1293.137817 1152.101440,1289.906006 1171.551758,1289.847046 
	C1179.216309,1289.823853 1186.894043,1290.161011 1194.542847,1289.820435 
	C1204.959961,1289.356445 1212.405029,1293.704590 1217.779053,1302.434326 
	C1227.732056,1318.602417 1237.852661,1334.667114 1247.880493,1350.789185 
	C1264.417480,1377.376099 1280.924438,1403.981812 1297.483765,1430.554810 
	C1298.960815,1432.925049 1300.729980,1435.113037 1304.092163,1436.912354 
	C1304.092163,1433.727417 1304.088501,1430.542480 1304.092773,1427.357544 
	C1304.145264,1388.700562 1304.196167,1350.043579 1304.257690,1311.386597 
	C1304.262451,1308.388184 1304.115601,1305.365601 1304.431274,1302.395996 
	C1305.299683,1294.226685 1308.965820,1290.289551 1317.290649,1289.985718 
	C1329.604370,1289.536011 1341.950317,1289.561523 1354.271240,1289.855469 
	C1362.587769,1290.053955 1366.378906,1293.787842 1367.499023,1301.922607 
	C1367.905518,1304.874268 1367.782959,1307.908325 1367.783325,1310.904785 
	C1367.791992,1387.552246 1367.785522,1464.199829 1367.778320,1540.847290 
	C1367.778198,1542.846558 1367.854736,1544.854736 1367.700439,1546.843506 
	C1367.089966,1554.703003 1363.936523,1559.154663 1356.307861,1559.567139 
	C1343.028320,1560.285278 1329.640015,1560.447510 1316.394287,1559.494263 
	C1312.099487,1559.185181 1307.684570,1555.127563 1304.111816,1551.910278 
	C1301.234375,1549.319336 1299.451050,1545.468750 1297.338867,1542.079468 
	C1272.146118,1501.654907 1246.985474,1461.210571 1221.805664,1420.778076 
	C1219.957397,1417.809937 1218.024170,1414.894653 1216.130493,1411.954834 
	C1215.381836,1412.159302 1214.633057,1412.363770 1213.884399,1412.568237 
	C1213.884399,1452.668091 1213.884399,1492.768066 1213.884277,1533.838867 
z"/>
<path fill="#FDFDFE" opacity="1.000000" stroke="none" 
	d="
M1946.433105,1310.605713 
	C1946.686646,1307.035645 1946.728882,1304.348022 1947.230957,1301.749023 
	C1949.154541,1291.789917 1953.931763,1287.465576 1964.042969,1286.370728 
	C1965.693604,1286.192261 1967.372925,1286.214600 1969.037476,1286.238647 
	C2001.362549,1286.703857 2033.699951,1286.807373 2066.005371,1287.874634 
	C2076.534668,1288.222534 2087.310547,1289.987183 2097.406494,1293.002930 
	C2137.334229,1304.929443 2163.700195,1338.251587 2165.729980,1380.905518 
	C2167.074951,1409.166626 2167.174072,1437.603149 2165.737793,1465.854736 
	C2163.234375,1515.102051 2127.749023,1552.086792 2078.991699,1558.109863 
	C2070.084229,1559.210205 2061.070312,1559.870117 2052.098633,1559.948364 
	C2023.769775,1560.195801 1995.437622,1560.108643 1967.106812,1560.073608 
	C1952.468018,1560.055420 1948.051270,1556.010620 1946.845093,1541.503540 
	C1946.486816,1537.196045 1946.590942,1532.844727 1946.587280,1528.513550 
	C1946.526001,1456.185303 1946.481323,1383.856934 1946.433105,1310.605713 
M2016.126343,1468.989502 
	C2016.126343,1478.879028 2016.126343,1488.768555 2016.126343,1499.468140 
	C2034.733398,1499.735352 2052.295410,1501.494263 2069.636719,1497.632080 
	C2084.596924,1494.300293 2093.745117,1483.893921 2096.083984,1468.663574 
	C2096.437256,1466.364136 2096.817871,1464.034912 2096.813965,1461.719971 
	C2096.766602,1434.453735 2097.210693,1407.169800 2096.344971,1379.927856 
	C2095.796143,1362.660645 2085.883057,1351.688110 2068.810059,1349.755127 
	C2053.699951,1348.044312 2038.312378,1348.740479 2023.045288,1348.512085 
	C2020.884399,1348.479736 2018.712036,1349.231079 2016.126343,1349.694946 
	C2016.126343,1389.186401 2016.126343,1428.090210 2016.126343,1468.989502 
z"/>
<path fill="#FDFDFE" opacity="1.000000" stroke="none" 
	d="
M1737.714233,1614.272949 
	C1747.708984,1629.918823 1751.922974,1646.419922 1751.857422,1664.196533 
	C1751.748047,1693.855347 1751.742432,1723.515015 1751.855591,1753.173706 
	C1751.953491,1778.836182 1742.889038,1800.543091 1724.726685,1818.665771 
	C1703.530151,1839.816162 1678.252808,1851.364380 1648.242432,1853.097046 
	C1610.156250,1855.296021 1577.314331,1844.351929 1550.802002,1816.195557 
	C1534.515015,1798.898438 1526.152832,1778.504883 1526.135132,1754.734619 
	C1526.112183,1724.075806 1526.136108,1693.416870 1526.127319,1662.758057 
	C1526.120483,1639.378784 1534.015259,1619.109253 1549.948853,1601.975342 
	C1574.267090,1575.825439 1604.217407,1563.639893 1639.965698,1563.874634 
	C1681.046997,1564.144409 1713.184082,1580.821899 1737.714233,1614.272949 
M1675.362915,1774.108154 
	C1681.967041,1765.517090 1684.145752,1755.486084 1684.222900,1744.997314 
	C1684.404419,1720.342773 1684.306763,1695.686157 1684.267212,1671.030396 
	C1684.262939,1668.372437 1684.056030,1665.692017 1683.674683,1663.060791 
	C1680.172729,1638.889771 1659.385376,1621.923706 1636.109985,1624.177856 
	C1612.751465,1626.440186 1594.888184,1643.915771 1594.053345,1667.374023 
	C1593.141357,1692.994507 1593.710693,1718.670654 1593.822021,1744.321533 
	C1593.839233,1748.272705 1594.614746,1752.273560 1595.462646,1756.159058 
	C1600.014526,1777.018799 1613.512085,1789.390381 1634.538208,1791.586792 
	C1650.635620,1793.268555 1663.897461,1787.441772 1675.362915,1774.108154 
z"/>
<path fill="#FDFDFE" opacity="1.000000" stroke="none" 
	d="
M1573.998047,1388.453369 
	C1584.997437,1388.456177 1594.999756,1388.319702 1604.996338,1388.499878 
	C1615.620117,1388.691528 1619.521606,1392.535522 1619.713257,1402.977173 
	C1619.890625,1412.640381 1619.816162,1422.309814 1619.743286,1431.975708 
	C1619.644775,1445.038452 1616.089355,1448.763672 1603.216187,1448.799194 
	C1570.883667,1448.888428 1538.550659,1448.830078 1506.217896,1448.830933 
	C1502.635742,1448.831055 1499.053589,1448.830933 1494.900391,1448.830933 
	C1494.900391,1468.149658 1494.900391,1486.298462 1494.900391,1505.655396 
	C1498.892822,1505.655396 1502.452393,1505.655396 1506.011963,1505.655396 
	C1542.677979,1505.655518 1579.343994,1505.655273 1616.010010,1505.656616 
	C1618.343262,1505.656738 1620.682251,1505.567627 1623.008789,1505.696289 
	C1631.168701,1506.147705 1635.309082,1509.883179 1635.611450,1518.046021 
	C1635.968994,1527.698975 1635.966675,1537.385986 1635.601440,1547.038696 
	C1635.280762,1555.513916 1630.822266,1559.568481 1622.337769,1560.078857 
	C1620.676758,1560.178833 1619.005493,1560.114258 1617.338867,1560.114380 
	C1557.673218,1560.115723 1498.007690,1560.115845 1438.342041,1560.116211 
	C1435.392456,1560.116211 1432.442871,1560.116211 1428.795654,1560.116211 
	C1428.795654,1469.885376 1428.795654,1380.389282 1428.795654,1290.108521 
	C1432.034668,1289.899780 1434.927368,1289.552368 1437.820190,1289.550903 
	C1498.152466,1289.519897 1558.484741,1289.527466 1618.817017,1289.531006 
	C1620.483276,1289.531128 1622.158569,1289.468262 1623.814331,1289.610718 
	C1631.387085,1290.262939 1635.731934,1294.069946 1635.981812,1301.472900 
	C1636.363892,1312.792725 1636.336792,1324.141724 1636.012329,1335.464844 
	C1635.798706,1342.924561 1631.582031,1346.936768 1624.140991,1347.685913 
	C1621.499023,1347.951904 1618.812500,1347.796997 1616.146240,1347.797363 
	C1579.480225,1347.802490 1542.814209,1347.800903 1506.148193,1347.801025 
	C1502.572266,1347.801025 1498.996338,1347.801025 1494.877441,1347.801025 
	C1494.877441,1361.651123 1494.877441,1374.460449 1494.877441,1388.453491 
	C1521.210815,1388.453491 1547.104736,1388.453491 1573.998047,1388.453369 
z"/>
<path fill="#FCFDFE" opacity="1.000000" stroke="none" 
	d="
M1706.405273,715.661682 
	C1749.135986,736.933472 1775.313110,770.261475 1784.794189,816.353882 
	C1800.216431,891.328918 1748.574219,966.903320 1672.978149,980.239380 
	C1598.687500,993.345215 1529.105591,948.300659 1511.168823,875.490540 
	C1491.077881,793.936279 1548.190552,712.639465 1631.766113,703.517700 
	C1657.590454,700.699097 1682.138550,704.706604 1706.405273,715.661682 
M1617.007202,930.538940 
	C1642.994385,930.538757 1668.981567,930.539246 1694.968750,930.537354 
	C1697.300903,930.537170 1699.638062,930.617310 1701.964355,930.496094 
	C1710.597900,930.046570 1714.590088,926.743469 1716.273438,918.167480 
	C1716.972778,914.604187 1717.155396,910.895935 1717.178955,907.251099 
	C1717.276245,892.259155 1717.222412,877.266235 1717.223877,862.273682 
	C1717.224243,859.019653 1717.223755,855.765686 1717.223755,852.235168 
	C1720.162109,851.882690 1722.127563,851.813904 1724.014038,851.391907 
	C1732.665771,849.456543 1735.110840,842.673096 1729.642212,835.872803 
	C1728.810547,834.838623 1727.805664,833.943420 1726.876099,832.988525 
	C1703.405640,808.875671 1679.935669,784.762207 1656.459473,760.654846 
	C1655.298096,759.462097 1654.182861,758.191528 1652.872803,757.182251 
	C1648.251953,753.622192 1644.913696,753.669250 1640.304932,757.405945 
	C1638.761353,758.657349 1637.447876,760.198242 1636.064453,761.640442 
	C1613.231079,785.441711 1590.401489,809.246521 1567.578613,833.057861 
	C1566.197754,834.498596 1564.676392,835.862671 1563.571899,837.499573 
	C1559.844727,843.023071 1561.857056,848.990662 1568.182129,850.940308 
	C1570.894653,851.776428 1573.796509,851.997803 1577.018921,852.570740 
	C1577.018921,870.819824 1576.975220,888.459900 1577.052124,906.099487 
	C1577.069580,910.083557 1577.142578,914.129517 1577.825928,918.035828 
	C1579.309326,926.516479 1583.492065,930.171997 1592.025635,930.457764 
	C1599.680298,930.714111 1607.349609,930.529175 1617.007202,930.538940 
z"/>
<path fill="#FDFDFE" opacity="1.000000" stroke="none" 
	d="
M1839.970215,1449.299561 
	C1809.759766,1449.299438 1780.543335,1449.299438 1750.842041,1449.299438 
	C1750.842041,1468.450073 1750.842041,1486.323853 1750.842041,1505.374878 
	C1754.422729,1505.532104 1757.929565,1505.816650 1761.436646,1505.819824 
	C1797.766235,1505.852783 1834.095825,1505.839966 1870.425415,1505.840454 
	C1872.758545,1505.840454 1875.093018,1505.794067 1877.424438,1505.857788 
	C1887.410522,1506.130615 1891.434326,1509.869141 1891.693604,1519.667603 
	C1891.922607,1528.327393 1891.905884,1537.001587 1891.703735,1545.662598 
	C1891.462158,1556.019531 1887.359741,1560.118042 1877.020996,1560.262817 
	C1864.691406,1560.435303 1852.357422,1560.309692 1840.025391,1560.309937 
	C1792.030396,1560.310791 1744.035278,1560.310059 1696.040283,1560.310059 
	C1692.450806,1560.310059 1688.861206,1560.310181 1684.866821,1560.310181 
	C1684.866821,1469.909546 1684.866821,1380.442993 1684.866821,1290.442627 
	C1688.125488,1290.169434 1690.685059,1289.768921 1693.244751,1289.767578 
	C1753.905151,1289.733521 1814.565430,1289.741943 1875.225830,1289.746338 
	C1876.891968,1289.746460 1878.570068,1289.668213 1880.222168,1289.831909 
	C1887.550049,1290.558350 1891.819702,1294.592407 1892.040894,1302.091797 
	C1892.374756,1313.413818 1892.373535,1324.760620 1892.025513,1336.082031 
	C1891.810059,1343.089111 1887.699585,1347.039673 1880.814575,1347.835938 
	C1878.180176,1348.140747 1875.488647,1347.981323 1872.823120,1347.981812 
	C1835.826904,1347.988892 1798.830811,1347.987061 1761.834595,1347.987305 
	C1758.526611,1347.987305 1755.218628,1347.987305 1750.613281,1347.987305 
	C1750.087280,1361.325195 1750.387573,1374.135132 1750.428711,1388.126953 
	C1754.353882,1388.370605 1757.839966,1388.769409 1761.326538,1388.774780 
	C1792.989990,1388.823853 1824.653320,1388.801025 1856.316772,1388.809814 
	C1858.981934,1388.810547 1861.671753,1388.672729 1864.307617,1388.972778 
	C1871.427979,1389.782959 1875.404785,1393.445801 1875.627686,1400.567017 
	C1876.002808,1412.553711 1876.013672,1424.569092 1875.638672,1436.555664 
	C1875.390381,1444.495850 1871.063354,1448.660889 1862.956909,1449.138916 
	C1855.648315,1449.569946 1848.296875,1449.274536 1839.970215,1449.299561 
z"/>
<path fill="#FDFDFE" opacity="1.000000" stroke="none" 
	d="
M2016.325684,1584.413574 
	C2017.036865,1590.507446 2017.990112,1595.791382 2018.003662,1601.077515 
	C2018.129150,1649.722778 2018.125488,1698.368286 2018.085327,1747.013794 
	C2018.069702,1765.970703 2014.021484,1784.063965 2005.288818,1800.922363 
	C1990.032471,1830.374146 1965.151489,1846.625732 1932.923462,1851.599854 
	C1900.645874,1856.581787 1869.835693,1850.919800 1841.016357,1835.655029 
	C1812.469849,1820.534668 1796.609375,1796.913330 1796.296509,1764.179565 
	C1795.911011,1723.869873 1796.156372,1683.554077 1796.111694,1643.240967 
	C1796.092896,1626.248535 1795.939941,1609.255615 1796.012939,1592.263672 
	C1796.079590,1576.738770 1800.812866,1572.026489 1816.338379,1571.923340 
	C1826.665771,1571.854736 1837.004150,1571.777466 1847.320557,1572.163940 
	C1861.224243,1572.684448 1864.203003,1575.883789 1864.205811,1589.756714 
	C1864.215942,1640.401001 1864.088501,1691.045288 1864.187378,1741.689331 
	C1864.200317,1748.310547 1864.777954,1755.005249 1865.875488,1761.534546 
	C1868.489258,1777.084229 1877.797729,1787.058105 1893.377686,1789.055054 
	C1903.102783,1790.301636 1913.333618,1789.757568 1923.067505,1788.261230 
	C1936.696777,1786.166016 1944.583252,1776.697021 1947.532959,1763.645996 
	C1949.132080,1756.570312 1949.738403,1749.136230 1949.761597,1741.860352 
	C1949.910645,1695.214844 1949.766357,1648.568481 1949.742310,1601.922363 
	C1949.739868,1597.260376 1949.570312,1592.564697 1950.048096,1587.943604 
	C1951.030151,1578.447754 1955.842041,1572.783936 1965.191162,1572.310547 
	C1977.459839,1571.689209 1989.823486,1572.080566 2002.099365,1572.817749 
	C2008.665771,1573.212036 2014.314575,1576.296021 2016.325684,1584.413574 
z"/>
<path fill="#FDFDFE" opacity="1.000000" stroke="none" 
	d="
M1490.109863,1606.275513 
	C1466.286987,1649.131104 1442.712769,1691.282715 1419.427368,1733.593140 
	C1417.303955,1737.451416 1416.109741,1742.317261 1416.053833,1746.735107 
	C1415.738159,1771.727417 1415.901489,1796.725830 1415.900757,1821.722168 
	C1415.900757,1824.055176 1415.934937,1826.388916 1415.886841,1828.720947 
	C1415.666748,1839.400757 1412.728760,1842.625122 1402.349976,1842.775635 
	C1389.687866,1842.959351 1377.018677,1842.966187 1364.356934,1842.767700 
	C1354.289307,1842.609863 1351.435425,1839.692993 1351.380859,1829.336914 
	C1351.245483,1803.674805 1351.105957,1778.008301 1351.457275,1752.350342 
	C1351.571045,1744.036377 1349.620972,1736.932861 1345.411499,1729.740356 
	C1319.333496,1685.182495 1293.604736,1640.420532 1267.768555,1595.721191 
	C1259.090942,1580.708130 1263.677124,1572.603516 1281.228271,1572.298096 
	C1293.556152,1572.083618 1305.898438,1572.521729 1318.219238,1572.157104 
	C1326.577881,1571.909790 1331.866699,1575.383179 1335.823975,1582.625854 
	C1349.718018,1608.053711 1363.937988,1633.303833 1378.069946,1658.601440 
	C1379.630493,1661.395020 1381.420288,1664.060425 1383.713379,1667.772095 
	C1385.958252,1664.089966 1387.759766,1661.412598 1389.286865,1658.586792 
	C1402.905029,1633.388306 1416.731445,1608.296875 1429.914917,1582.872192 
	C1434.331421,1574.354858 1440.089844,1570.599976 1449.685303,1571.139282 
	C1460.316772,1571.736694 1471.008423,1571.213379 1481.672485,1571.317627 
	C1484.988159,1571.349976 1488.409424,1571.399048 1491.591431,1572.199097 
	C1500.123779,1574.344971 1503.400269,1581.132080 1499.619629,1589.001465 
	C1496.884033,1594.695435 1493.520508,1600.087769 1490.109863,1606.275513 
z"/>
<path fill="#FDFDFE" opacity="1.000000" stroke="none" 
	d="
M1677.996704,1278.120117 
	C1649.671753,1278.119263 1622.345825,1278.157837 1595.020142,1278.101562 
	C1580.909058,1278.072632 1576.390503,1273.608643 1576.262939,1259.714600 
	C1576.183472,1251.051025 1576.076050,1242.381592 1576.303589,1233.723145 
	C1576.589355,1222.859375 1581.521729,1218.025146 1592.395630,1217.783569 
	C1599.992676,1217.614746 1607.596680,1217.750977 1615.873657,1217.750977 
	C1615.873657,1165.710693 1615.873657,1114.545288 1615.873657,1062.336670 
	C1613.366821,1062.160278 1610.522217,1061.838745 1607.672607,1061.785645 
	C1602.009277,1061.679565 1596.325439,1062.000488 1590.682617,1061.637329 
	C1582.141113,1061.087402 1576.789185,1056.201172 1576.432617,1047.851440 
	C1575.963745,1036.875122 1575.959229,1025.848145 1576.437012,1014.872559 
	C1576.805786,1006.402344 1581.967529,1001.684998 1590.729370,1001.315002 
	C1599.711548,1000.935547 1608.720459,1001.170532 1617.717651,1001.167480 
	C1645.043457,1001.158386 1672.369385,1001.158875 1699.695190,1001.171997 
	C1702.692505,1001.173401 1705.712891,1001.065430 1708.682861,1001.381104 
	C1716.737061,1002.237061 1721.478027,1006.831604 1721.784912,1015.030579 
	C1722.183350,1025.679199 1722.159302,1036.361938 1721.822632,1047.014404 
	C1721.535889,1056.083862 1716.454102,1061.168701 1707.411987,1061.633911 
	C1700.107544,1062.009644 1692.768311,1061.710083 1685.572998,1061.710083 
	C1683.388306,1068.878418 1682.593506,1199.949341 1684.670532,1217.745117 
	C1691.017700,1217.745117 1697.559570,1217.686035 1704.100098,1217.757446 
	C1717.379028,1217.902344 1721.814819,1222.421631 1721.925537,1235.962036 
	C1721.996338,1244.625732 1722.083496,1253.293823 1721.890747,1261.953857 
	C1721.648071,1272.859863 1716.734009,1277.841797 1705.987793,1278.069336 
	C1696.994263,1278.260010 1687.993408,1278.116089 1677.996704,1278.120117 
z"/>
<path fill="#2E56A0" opacity="1.000000" stroke="none" 
	d="
M2016.126343,1467.991699 
	C2016.126343,1428.090210 2016.126343,1389.186401 2016.126343,1349.694946 
	C2018.712036,1349.231079 2020.884399,1348.479736 2023.045288,1348.512085 
	C2038.312378,1348.740479 2053.699951,1348.044312 2068.810059,1349.755127 
	C2085.883057,1351.688110 2095.796143,1362.660645 2096.344971,1379.927856 
	C2097.210693,1407.169800 2096.766602,1434.453735 2096.813965,1461.719971 
	C2096.817871,1464.034912 2096.437256,1466.364136 2096.083984,1468.663574 
	C2093.745117,1483.893921 2084.596924,1494.300293 2069.636719,1497.632080 
	C2052.295410,1501.494263 2034.733398,1499.735352 2016.126343,1499.468140 
	C2016.126343,1488.768555 2016.126343,1478.879028 2016.126343,1467.991699 
z"/>
<path fill="#2C54A0" opacity="1.000000" stroke="none" 
	d="
M1674.893799,1774.672852 
	C1663.897461,1787.441772 1650.635620,1793.268555 1634.538208,1791.586792 
	C1613.512085,1789.390381 1600.014526,1777.018799 1595.462646,1756.159058 
	C1594.614746,1752.273560 1593.839233,1748.272705 1593.822021,1744.321533 
	C1593.710693,1718.670654 1593.141357,1692.994507 1594.053345,1667.374023 
	C1594.888184,1643.915771 1612.751465,1626.440186 1636.109985,1624.177856 
	C1659.385376,1621.923706 1680.172729,1638.889771 1683.674683,1663.060791 
	C1684.056030,1665.692017 1684.262939,1668.372437 1684.267212,1671.030396 
	C1684.306763,1695.686157 1684.404419,1720.342773 1684.222900,1744.997314 
	C1684.145752,1755.486084 1681.967041,1765.517090 1674.893799,1774.672852 
z"/>
<path fill="#2E56A0" opacity="1.000000" stroke="none" 
	d="
M1616.009766,930.538940 
	C1607.349609,930.529175 1599.680298,930.714111 1592.025635,930.457764 
	C1583.492065,930.171997 1579.309326,926.516479 1577.825928,918.035828 
	C1577.142578,914.129517 1577.069580,910.083557 1577.052124,906.099487 
	C1576.975220,888.459900 1577.018921,870.819824 1577.018921,852.570740 
	C1573.796509,851.997803 1570.894653,851.776428 1568.182129,850.940308 
	C1561.857056,848.990662 1559.844727,843.023071 1563.571899,837.499573 
	C1564.676392,835.862671 1566.197754,834.498596 1567.578613,833.057861 
	C1590.401489,809.246521 1613.231079,785.441711 1636.064453,761.640442 
	C1637.447876,760.198242 1638.761353,758.657349 1640.304932,757.405945 
	C1644.913696,753.669250 1648.251953,753.622192 1652.872803,757.182251 
	C1654.182861,758.191528 1655.298096,759.462097 1656.459473,760.654846 
	C1679.935669,784.762207 1703.405640,808.875671 1726.876099,832.988525 
	C1727.805664,833.943420 1728.810547,834.838623 1729.642212,835.872803 
	C1735.110840,842.673096 1732.665771,849.456543 1724.014038,851.391907 
	C1722.127563,851.813904 1720.162109,851.882690 1717.223755,852.235168 
	C1717.223755,855.765686 1717.224243,859.019653 1717.223877,862.273682 
	C1717.222412,877.266235 1717.276245,892.259155 1717.178955,907.251099 
	C1717.155396,910.895935 1716.972778,914.604187 1716.273438,918.167480 
	C1714.590088,926.743469 1710.597900,930.046570 1701.964355,930.496094 
	C1699.638062,930.617310 1697.300903,930.537170 1694.968750,930.537354 
	C1668.981567,930.539246 1642.994385,930.538757 1616.009766,930.538940 
M1620.392212,871.680298 
	C1620.406494,879.988037 1620.102905,888.311768 1620.517334,896.599487 
	C1621.011597,906.482300 1626.553223,911.704712 1636.418945,912.023071 
	C1643.390381,912.247986 1650.379883,912.235107 1657.352295,912.026306 
	C1666.898560,911.740417 1672.740967,906.893677 1673.257202,897.710999 
	C1673.853149,887.112488 1673.822632,876.431274 1673.254639,865.829346 
	C1672.773560,856.851685 1667.325073,852.020630 1658.381226,851.612244 
	C1652.079956,851.324585 1645.755371,851.484375 1639.442139,851.536377 
	C1625.480225,851.651428 1621.412354,855.592712 1620.392212,871.680298 
z"/>
<path fill="#FAFBFD" opacity="1.000000" stroke="none" 
	d="
M1620.393555,870.774170 
	C1621.412354,855.592712 1625.480225,851.651428 1639.442139,851.536377 
	C1645.755371,851.484375 1652.079956,851.324585 1658.381226,851.612244 
	C1667.325073,852.020630 1672.773560,856.851685 1673.254639,865.829346 
	C1673.822632,876.431274 1673.853149,887.112488 1673.257202,897.710999 
	C1672.740967,906.893677 1666.898560,911.740417 1657.352295,912.026306 
	C1650.379883,912.235107 1643.390381,912.247986 1636.418945,912.023071 
	C1626.553223,911.704712 1621.011597,906.482300 1620.517334,896.599487 
	C1620.102905,888.311768 1620.406494,879.988037 1620.393555,870.774170 
z"/>
</svg>